<svg xmlns="http://www.w3.org/2000/svg" viewBox="0 0 24 24">
    <path d="M7.508 11.001c-.569 0-1.087.198-1.508.519V11c0-.53.076-1.041.205-1.53L4.477 8.302C4.174 9.146 4 10.052 4 11v1.561c-1.19.691-2 1.962-2 3.439 0 2.027 1.515 3.676 3.469 3.938.453.64 1.196 1.062 2.039 1.062 1.379 0 2.5-1.121 2.5-2.498v-5.001c0-1.378-1.121-2.5-2.5-2.5zm-3.492 4.983c0-.733.402-1.362.992-1.705v3.408c-.59-.341-.992-.97-.992-1.703zm3.992 2.518c0 .275-.224.498-.5.498s-.5-.223-.5-.498v-5.001c0-.276.224-.5.5-.5s.5.224.5.5v5.001zM22 16c0-1.477-.81-2.748-2-3.439V11c0-4.418-3.582-8-8-8-.949 0-1.855.174-2.7.477l1.164 1.729C10.956 5.076 11.468 5 12 5c3.309 0 6 2.691 6 6v.521c-.421-.322-.939-.521-1.509-.521-1.38 0-2.5 1.122-2.5 2.5v5.001c0 1.377 1.12 2.498 2.5 2.498.842 0 1.585-.422 2.038-1.062C20.484 19.677 22 18.028 22 16zm-5.009 2.502c0 .275-.224.498-.5.498s-.5-.223-.5-.498v-5.001c0-.276.224-.5.5-.5s.5.224.5.5v5.001zm1.999-.814v-3.41c.591.342.994.972.994 1.706s-.403 1.364-.994 1.704zM6.021 4.979h2v2h-2z"/>
</svg>
